<?xml version="1.0" standalone="no"?>
<!DOCTYPE svg PUBLIC "-//W3C//DTD SVG 20010904//EN"
 "http://www.w3.org/TR/2001/REC-SVG-20010904/DTD/svg10.dtd">
<svg version="1.0" xmlns="http://www.w3.org/2000/svg"
 width="612.000000pt" height="612.000000pt" viewBox="0 0 612.000000 612.000000"
 preserveAspectRatio="xMidYMid meet">
<metadata>
Created by potrace 1.11, written by Peter Selinger 2001-2013
</metadata>
<g transform="translate(0.000000,612.000000) scale(0.100000,-0.100000)"
fill="#000000" stroke="none">
<path d="M895 6043 c-124 -18 -286 -79 -392 -150 -84 -55 -203 -173 -261 -256
-75 -109 -101 -164 -145 -312 l-21 -70 -4 -2150 c-2 -1485 1 -2172 8 -2220 16
-103 70 -254 126 -348 66 -111 220 -265 331 -331 92 -54 243 -110 343 -125 90
-15 4270 -15 4360 0 100 15 251 71 343 125 111 66 265 220 331 331 56 94 110
245 126 348 7 48 10 735 8 2220 l-4 2150 -21 70 c-61 203 -135 327 -271 457
-125 119 -252 191 -420 240 l-77 22 -2165 2 c-1191 1 -2178 -1 -2195 -3z
m2720 -1264 c116 -14 252 -49 347 -88 150 -63 300 -184 375 -302 144 -229 163
-603 42 -856 -66 -138 -208 -278 -363 -357 -39 -20 -63 -37 -55 -40 213 -65
295 -110 409 -225 67 -67 96 -106 132 -177 161 -312 156 -738 -13 -1021 -52
-85 -162 -197 -258 -261 -142 -95 -317 -162 -536 -204 -107 -21 -139 -22
-1072 -25 l-963 -4 0 1786 0 1785 933 0 c615 0 963 -4 1022 -11z"/>
<path d="M2290 3790 l0 -491 583 3 582 3 68 27 c116 47 211 127 257 218 49 95
63 259 34 397 -35 171 -118 257 -299 310 -53 15 -124 18 -642 21 l-583 3 0
-491z"/>
<path d="M2290 2285 l0 -555 578 0 c611 0 686 5 800 48 207 79 322 263 322
517 0 283 -144 470 -407 529 -62 14 -159 16 -682 16 l-611 0 0 -555z"/>
</g>
</svg>
