<?xml version="1.0" standalone="no"?>
<!DOCTYPE svg PUBLIC "-//W3C//DTD SVG 20010904//EN"
 "http://www.w3.org/TR/2001/REC-SVG-20010904/DTD/svg10.dtd">
<svg version="1.0" xmlns="http://www.w3.org/2000/svg"
 width="128.000000pt" height="128.000000pt" viewBox="0 0 128.000000 128.000000"
 preserveAspectRatio="xMidYMid meet">
<metadata>
Created by potrace 1.11, written by Peter Selinger 2001-2013
</metadata>
<g transform="translate(0.000000,128.000000) scale(0.100000,-0.100000)"
fill="#000000" stroke="none">
<path d="M185 1216 c-60 -28 -97 -66 -124 -126 -20 -43 -21 -64 -21 -451 l0
-406 30 -61 c33 -66 95 -116 154 -127 17 -3 215 -5 441 -3 452 3 437 1 504 69
68 67 66 52 69 504 2 226 0 424 -3 441 -11 59 -61 121 -127 154 l-61 30 -406
0 c-406 0 -406 0 -456 -24z m586 -285 c61 -41 84 -85 84 -157 0 -49 -5 -69
-22 -93 -13 -16 -23 -35 -23 -41 0 -6 10 -25 23 -41 17 -24 22 -44 22 -93 0
-72 -23 -116 -84 -157 -34 -22 -46 -24 -193 -27 l-158 -4 0 322 0 322 158 -4
c147 -3 159 -5 193 -27z"/>
<path d="M520 776 l0 -86 89 0 c80 0 93 3 117 24 36 30 39 86 6 119 -20 19
-35 22 -117 25 l-95 4 0 -86z"/>
<path d="M520 504 l0 -86 95 4 c82 3 97 6 117 25 33 33 30 89 -6 119 -24 21
-37 24 -117 24 l-89 0 0 -86z"/>
</g>
</svg>
